<svg viewBox="0 0 100 100" xmlns="http://www.w3.org/2000/svg">
  <!-- Loaf bread, 3/4 view with horizontal score lines -->
  <!-- Shadow -->
  <ellipse cx="52" cy="88" rx="34" ry="5" fill="#00000020"/>
  <!-- Front face of loaf -->
  <path d="M16 40 L16 82 Q16 86 20 86 L72 86 Q76 86 76 82 L76 40Z" fill="#D4952B" stroke="#5D4037" stroke-width="2.5"/>
  <!-- Top of loaf (rounded dome) -->
  <path d="M16 40 Q16 18 46 18 Q76 18 76 40Z" fill="#E8A830" stroke="#5D4037" stroke-width="2.5"/>
  <!-- Right side panel (3/4 depth) -->
  <path d="M76 40 L88 34 L88 80 Q88 84 84 84 L76 86Z" fill="#C07B18" stroke="#5D4037" stroke-width="2.5"/>
  <!-- Top right edge -->
  <path d="M76 40 L88 34 Q88 14 56 12 L46 18" fill="#D4952B" stroke="#5D4037" stroke-width="2.5"/>
  <!-- Score lines on top -->
  <path d="M22 32 Q38 26 56 26 Q70 26 80 30" fill="none" stroke="#C07B18" stroke-width="2" stroke-linecap="round"/>
  <path d="M20 38 Q38 32 56 32 Q72 32 82 36" fill="none" stroke="#C07B18" stroke-width="2" stroke-linecap="round"/>
  <!-- Highlight on top -->
  <path d="M26 28 Q38 22 52 22" fill="none" stroke="#F0C040" stroke-width="2.5" stroke-linecap="round" opacity="0.35"/>
</svg>