<svg viewBox="0 0 100 100" xmlns="http://www.w3.org/2000/svg">
  <!-- Carrot body - tapered -->
  <path d="M42 22 Q38 22 36 35 Q32 55 38 70 Q42 82 48 92 Q52 82 56 70 Q62 55 58 35 Q56 22 52 22Z"
        fill="#FF9800" stroke="#E65100" stroke-width="3"/>
  <!-- Lighter side -->
  <path d="M44 26 Q40 26 38 38 Q34 55 40 70 Q44 80 48 88"
        fill="#FFB74D" stroke="none" opacity="0.5"/>
  <!-- Horizontal lines -->
  <line x1="39" y1="36" x2="55" y2="34" stroke="#E65100" stroke-width="1.5" opacity="0.35"/>
  <line x1="37" y1="48" x2="57" y2="46" stroke="#E65100" stroke-width="1.5" opacity="0.35"/>
  <line x1="38" y1="60" x2="56" y2="58" stroke="#E65100" stroke-width="1.5" opacity="0.3"/>
  <line x1="40" y1="72" x2="54" y2="70" stroke="#E65100" stroke-width="1.5" opacity="0.25"/>
  <!-- Green leafy top - multiple leaves -->
  <path d="M44 22 Q36 8 30 4" fill="none" stroke="#4CAF50" stroke-width="3.5" stroke-linecap="round"/>
  <path d="M47 20 Q44 6 42 2" fill="none" stroke="#66BB6A" stroke-width="3" stroke-linecap="round"/>
  <path d="M50 20 Q52 6 54 2" fill="none" stroke="#4CAF50" stroke-width="3.5" stroke-linecap="round"/>
  <path d="M53 22 Q58 8 64 4" fill="none" stroke="#66BB6A" stroke-width="3" stroke-linecap="round"/>
  <!-- Leaf details -->
  <path d="M32 6 Q34 10 38 12" fill="none" stroke="#388E3C" stroke-width="1" opacity="0.5"/>
  <path d="M62 6 Q60 10 56 12" fill="none" stroke="#388E3C" stroke-width="1" opacity="0.5"/>
</svg>