<svg viewBox="0 0 100 100" xmlns="http://www.w3.org/2000/svg">
  <!-- Stack of 3 chocolate chip cookies -->
  <!-- Shadow -->
  <ellipse cx="50" cy="88" rx="30" ry="5" fill="#00000020"/>
  <!-- Bottom cookie -->
  <ellipse cx="46" cy="78" rx="26" ry="10" fill="#D4952B" stroke="#5D4037" stroke-width="2.5"/>
  <circle cx="32" cy="76" r="3" fill="#5D3A1A" stroke="#4E342E" stroke-width="1"/>
  <circle cx="46" cy="74" r="2.5" fill="#5D3A1A" stroke="#4E342E" stroke-width="1"/>
  <circle cx="58" cy="80" r="3" fill="#5D3A1A" stroke="#4E342E" stroke-width="1"/>
  <circle cx="64" cy="74" r="2" fill="#5D3A1A" stroke="#4E342E" stroke-width="1"/>
  <!-- Middle cookie -->
  <ellipse cx="52" cy="62" rx="26" ry="10" fill="#E8A830" stroke="#5D4037" stroke-width="2.5"/>
  <circle cx="38" cy="60" r="3" fill="#5D3A1A" stroke="#4E342E" stroke-width="1"/>
  <circle cx="52" cy="58" r="2.5" fill="#5D3A1A" stroke="#4E342E" stroke-width="1"/>
  <circle cx="66" cy="62" r="3" fill="#5D3A1A" stroke="#4E342E" stroke-width="1"/>
  <circle cx="44" cy="65" r="2" fill="#5D3A1A" stroke="#4E342E" stroke-width="1"/>
  <circle cx="60" cy="66" r="2.5" fill="#5D3A1A" stroke="#4E342E" stroke-width="1"/>
  <!-- Top cookie -->
  <ellipse cx="48" cy="44" rx="28" ry="11" fill="#E8B838" stroke="#5D4037" stroke-width="2.5"/>
  <path d="M28 42 Q38 36 52 38" fill="none" stroke="#F0D060" stroke-width="2" opacity="0.35" stroke-linecap="round"/>
  <circle cx="32" cy="42" r="3.5" fill="#5D3A1A" stroke="#4E342E" stroke-width="1"/>
  <circle cx="48" cy="40" r="3" fill="#5D3A1A" stroke="#4E342E" stroke-width="1"/>
  <circle cx="62" cy="42" r="3.5" fill="#5D3A1A" stroke="#4E342E" stroke-width="1"/>
  <circle cx="38" cy="48" r="2.5" fill="#5D3A1A" stroke="#4E342E" stroke-width="1"/>
  <circle cx="54" cy="49" r="3" fill="#5D3A1A" stroke="#4E342E" stroke-width="1"/>
  <circle cx="70" cy="46" r="2.5" fill="#5D3A1A" stroke="#4E342E" stroke-width="1"/>
</svg>