<svg viewBox="0 0 100 100" xmlns="http://www.w3.org/2000/svg">
  <!-- Bottom cookie -->
  <ellipse cx="50" cy="72" rx="24" ry="10" fill="#C8922A" stroke="#8B6914" stroke-width="3"/>
  <ellipse cx="50" cy="68" rx="24" ry="10" fill="#D4A040" stroke="#8B6914" stroke-width="3"/>
  <circle cx="40" cy="66" r="2.5" fill="#5D4037"/>
  <circle cx="54" cy="64" r="2" fill="#5D4037"/>
  <circle cx="62" cy="68" r="2.5" fill="#5D4037"/>
  <!-- Middle cookie -->
  <ellipse cx="48" cy="56" rx="24" ry="10" fill="#C8922A" stroke="#8B6914" stroke-width="3"/>
  <ellipse cx="48" cy="52" rx="24" ry="10" fill="#E0B050" stroke="#8B6914" stroke-width="3"/>
  <circle cx="36" cy="50" r="2.5" fill="#5D4037"/>
  <circle cx="50" cy="48" r="2" fill="#5D4037"/>
  <circle cx="58" cy="52" r="2.5" fill="#5D4037"/>
  <circle cx="42" cy="55" r="2" fill="#5D4037"/>
  <!-- Top cookie -->
  <ellipse cx="52" cy="40" rx="24" ry="10" fill="#C8922A" stroke="#8B6914" stroke-width="3"/>
  <ellipse cx="52" cy="36" rx="24" ry="10" fill="#E8C060" stroke="#8B6914" stroke-width="3"/>
  <circle cx="40" cy="34" r="2.5" fill="#5D4037"/>
  <circle cx="54" cy="32" r="2" fill="#5D4037"/>
  <circle cx="62" cy="36" r="2.5" fill="#5D4037"/>
  <circle cx="46" cy="38" r="2" fill="#5D4037"/>
  <circle cx="58" cy="40" r="2" fill="#5D4037"/>
  <!-- Highlight on top cookie -->
  <path d="M34 32 Q42 28 52 30" fill="none" stroke="#F0D888" stroke-width="2" opacity="0.5" stroke-linecap="round"/>
</svg>