<svg viewBox="0 0 100 100" xmlns="http://www.w3.org/2000/svg">
  <!-- Egg shape -->
  <path d="M50 10 Q28 10 22 40 Q16 65 30 80 Q40 92 50 92 Q60 92 70 80 Q84 65 78 40 Q72 10 50 10Z"
        fill="#FAEBD7" stroke="#BCAAA4" stroke-width="3"/>
  <!-- Subtle inner lighter area -->
  <path d="M50 14 Q32 14 26 42 Q20 62 34 76 Q42 86 50 86"
        fill="#FFF8F0" stroke="none" opacity="0.5"/>
  <!-- Main highlight/shine -->
  <ellipse cx="38" cy="36" rx="10" ry="14" fill="#FFFFFF" opacity="0.35" transform="rotate(-15,38,36)"/>
  <!-- Small bright shine dot -->
  <circle cx="36" cy="32" r="3" fill="#FFFFFF" opacity="0.5"/>
  <!-- Subtle shadow at bottom -->
  <path d="M34 78 Q42 88 50 88 Q58 88 66 78"
        fill="#D7CCC8" stroke="none" opacity="0.3"/>
</svg>