<svg viewBox="0 0 100 100" xmlns="http://www.w3.org/2000/svg">
  <!-- Square matza with dot grid pattern -->
  <!-- Shadow -->
  <ellipse cx="52" cy="90" rx="34" ry="4" fill="#00000020"/>
  <!-- Main matza square -->
  <rect x="10" y="16" width="80" height="68" rx="3" fill="#E8D8B0" stroke="#5D4037" stroke-width="2.5"/>
  <!-- Lighter inner area -->
  <rect x="14" y="20" width="72" height="60" rx="2" fill="#F0E4C4"/>
  <!-- Slightly uneven edges for natural look -->
  <path d="M12 18 Q50 14 88 18" fill="none" stroke="#D4C4A0" stroke-width="1" opacity="0.5"/>
  <path d="M12 82 Q50 86 88 82" fill="none" stroke="#D4C4A0" stroke-width="1" opacity="0.5"/>
  <!-- Dot grid pattern - rows of small perforations -->
  <!-- Row 1 -->
  <circle cx="22" cy="28" r="1.2" fill="#C8B898"/><circle cx="30" cy="28" r="1.2" fill="#C8B898"/>
  <circle cx="38" cy="28" r="1.2" fill="#C8B898"/><circle cx="46" cy="28" r="1.2" fill="#C8B898"/>
  <circle cx="54" cy="28" r="1.2" fill="#C8B898"/><circle cx="62" cy="28" r="1.2" fill="#C8B898"/>
  <circle cx="70" cy="28" r="1.2" fill="#C8B898"/><circle cx="78" cy="28" r="1.2" fill="#C8B898"/>
  <!-- Row 2 -->
  <circle cx="22" cy="36" r="1.2" fill="#C8B898"/><circle cx="30" cy="36" r="1.2" fill="#C8B898"/>
  <circle cx="38" cy="36" r="1.2" fill="#C8B898"/><circle cx="46" cy="36" r="1.2" fill="#C8B898"/>
  <circle cx="54" cy="36" r="1.2" fill="#C8B898"/><circle cx="62" cy="36" r="1.2" fill="#C8B898"/>
  <circle cx="70" cy="36" r="1.2" fill="#C8B898"/><circle cx="78" cy="36" r="1.2" fill="#C8B898"/>
  <!-- Row 3 -->
  <circle cx="22" cy="44" r="1.2" fill="#C8B898"/><circle cx="30" cy="44" r="1.2" fill="#C8B898"/>
  <circle cx="38" cy="44" r="1.2" fill="#C8B898"/><circle cx="46" cy="44" r="1.2" fill="#C8B898"/>
  <circle cx="54" cy="44" r="1.2" fill="#C8B898"/><circle cx="62" cy="44" r="1.2" fill="#C8B898"/>
  <circle cx="70" cy="44" r="1.2" fill="#C8B898"/><circle cx="78" cy="44" r="1.2" fill="#C8B898"/>
  <!-- Row 4 -->
  <circle cx="22" cy="52" r="1.2" fill="#C8B898"/><circle cx="30" cy="52" r="1.2" fill="#C8B898"/>
  <circle cx="38" cy="52" r="1.2" fill="#C8B898"/><circle cx="46" cy="52" r="1.2" fill="#C8B898"/>
  <circle cx="54" cy="52" r="1.2" fill="#C8B898"/><circle cx="62" cy="52" r="1.2" fill="#C8B898"/>
  <circle cx="70" cy="52" r="1.2" fill="#C8B898"/><circle cx="78" cy="52" r="1.2" fill="#C8B898"/>
  <!-- Row 5 -->
  <circle cx="22" cy="60" r="1.2" fill="#C8B898"/><circle cx="30" cy="60" r="1.2" fill="#C8B898"/>
  <circle cx="38" cy="60" r="1.2" fill="#C8B898"/><circle cx="46" cy="60" r="1.2" fill="#C8B898"/>
  <circle cx="54" cy="60" r="1.2" fill="#C8B898"/><circle cx="62" cy="60" r="1.2" fill="#C8B898"/>
  <circle cx="70" cy="60" r="1.2" fill="#C8B898"/><circle cx="78" cy="60" r="1.2" fill="#C8B898"/>
  <!-- Row 6 -->
  <circle cx="22" cy="68" r="1.2" fill="#C8B898"/><circle cx="30" cy="68" r="1.2" fill="#C8B898"/>
  <circle cx="38" cy="68" r="1.2" fill="#C8B898"/><circle cx="46" cy="68" r="1.2" fill="#C8B898"/>
  <circle cx="54" cy="68" r="1.2" fill="#C8B898"/><circle cx="62" cy="68" r="1.2" fill="#C8B898"/>
  <circle cx="70" cy="68" r="1.2" fill="#C8B898"/><circle cx="78" cy="68" r="1.2" fill="#C8B898"/>
  <!-- Row 7 -->
  <circle cx="22" cy="76" r="1.2" fill="#C8B898"/><circle cx="30" cy="76" r="1.2" fill="#C8B898"/>
  <circle cx="38" cy="76" r="1.2" fill="#C8B898"/><circle cx="46" cy="76" r="1.2" fill="#C8B898"/>
  <circle cx="54" cy="76" r="1.2" fill="#C8B898"/><circle cx="62" cy="76" r="1.2" fill="#C8B898"/>
  <circle cx="70" cy="76" r="1.2" fill="#C8B898"/><circle cx="78" cy="76" r="1.2" fill="#C8B898"/>
  <!-- Bake spots -->
  <circle cx="34" cy="40" r="3" fill="#D8C8A0" opacity="0.5"/>
  <circle cx="62" cy="56" r="3.5" fill="#D8C8A0" opacity="0.4"/>
  <circle cx="50" cy="72" r="2.5" fill="#D8C8A0" opacity="0.5"/>
</svg>