<svg viewBox="0 0 100 100" xmlns="http://www.w3.org/2000/svg">
  <!-- Square matza -->
  <rect x="12" y="20" width="76" height="60" rx="4" fill="#F5DEB3" stroke="#8B7355" stroke-width="3"/>
  <!-- Lighter inner area -->
  <rect x="16" y="24" width="68" height="52" rx="2" fill="#FAE8C8" stroke="none"/>
  <!-- Perforation grid - vertical lines -->
  <line x1="28" y1="26" x2="28" y2="74" stroke="#D2B48C" stroke-width="1.5" stroke-dasharray="3,4"/>
  <line x1="40" y1="26" x2="40" y2="74" stroke="#D2B48C" stroke-width="1.5" stroke-dasharray="3,4"/>
  <line x1="52" y1="26" x2="52" y2="74" stroke="#D2B48C" stroke-width="1.5" stroke-dasharray="3,4"/>
  <line x1="64" y1="26" x2="64" y2="74" stroke="#D2B48C" stroke-width="1.5" stroke-dasharray="3,4"/>
  <line x1="76" y1="26" x2="76" y2="74" stroke="#D2B48C" stroke-width="1.5" stroke-dasharray="3,4"/>
  <!-- Perforation grid - horizontal lines -->
  <line x1="18" y1="34" x2="82" y2="34" stroke="#D2B48C" stroke-width="1.5" stroke-dasharray="3,4"/>
  <line x1="18" y1="44" x2="82" y2="44" stroke="#D2B48C" stroke-width="1.5" stroke-dasharray="3,4"/>
  <line x1="18" y1="54" x2="82" y2="54" stroke="#D2B48C" stroke-width="1.5" stroke-dasharray="3,4"/>
  <line x1="18" y1="64" x2="82" y2="64" stroke="#D2B48C" stroke-width="1.5" stroke-dasharray="3,4"/>
  <!-- Bake spots/bubbles -->
  <circle cx="34" cy="39" r="2.5" fill="#D4B896" opacity="0.6"/>
  <circle cx="58" cy="49" r="3" fill="#D4B896" opacity="0.5"/>
  <circle cx="46" cy="59" r="2" fill="#D4B896" opacity="0.6"/>
  <circle cx="70" cy="39" r="2" fill="#D4B896" opacity="0.5"/>
  <circle cx="22" cy="49" r="2.5" fill="#D4B896" opacity="0.5"/>
  <circle cx="34" cy="69" r="2" fill="#D4B896" opacity="0.6"/>
  <circle cx="70" cy="59" r="2.5" fill="#D4B896" opacity="0.5"/>
  <!-- Slight edge browning -->
  <rect x="12" y="20" width="76" height="60" rx="4" fill="none" stroke="#C4A07A" stroke-width="1" opacity="0.4"/>
</svg>