<svg viewBox="0 0 100 100" xmlns="http://www.w3.org/2000/svg">
  <!-- Bowl of elbow macaroni -->
  <!-- Shadow -->
  <ellipse cx="50" cy="90" rx="32" ry="5" fill="#00000020"/>
  <!-- Bowl outer -->
  <path d="M10 50 Q10 88 50 88 Q90 88 90 50" fill="#F5F0E0" stroke="#5D4037" stroke-width="2.5"/>
  <!-- Bowl rim -->
  <ellipse cx="50" cy="50" rx="40" ry="12" fill="#FFF8E8" stroke="#5D4037" stroke-width="2.5"/>
  <!-- Bowl inner surface -->
  <ellipse cx="50" cy="50" rx="34" ry="8" fill="#F0E8D0"/>
  <!-- Elbow macaroni pieces -->
  <path d="M28 48 Q26 42 32 42 Q36 42 34 48" fill="#E8C840" stroke="#5D4037" stroke-width="1.5"/>
  <path d="M40 45 Q38 39 44 39 Q48 39 46 45" fill="#D4B030" stroke="#5D4037" stroke-width="1.5"/>
  <path d="M54 46 Q52 40 58 40 Q62 40 60 46" fill="#E8C840" stroke="#5D4037" stroke-width="1.5"/>
  <path d="M66 48 Q64 42 70 42 Q74 42 72 48" fill="#D4B030" stroke="#5D4037" stroke-width="1.5"/>
  <path d="M34 53 Q32 47 38 47 Q42 47 40 53" fill="#4CAF50" stroke="#5D4037" stroke-width="1.5"/>
  <path d="M48 52 Q46 46 52 46 Q56 46 54 52" fill="#E8C840" stroke="#5D4037" stroke-width="1.5"/>
  <path d="M62 51 Q60 45 66 45 Q70 45 68 51" fill="#4CAF50" stroke="#5D4037" stroke-width="1.5"/>
  <path d="M22 52 Q20 46 26 46 Q30 46 28 52" fill="#D4B030" stroke="#5D4037" stroke-width="1.2"/>
  <path d="M74 51 Q72 46 77 46 Q80 46 78 51" fill="#E8C840" stroke="#5D4037" stroke-width="1.2"/>
</svg>