<svg viewBox="0 0 100 100" xmlns="http://www.w3.org/2000/svg">
  <!-- Bowl -->
  <ellipse cx="50" cy="72" rx="38" ry="12" fill="#E8E8E8" stroke="#999" stroke-width="2.5"/>
  <path d="M12 58 L12 72 Q12 84 50 84 Q88 84 88 72 L88 58 Q88 70 50 70 Q12 70 12 58Z"
        fill="#F5F5F5" stroke="#999" stroke-width="2.5"/>
  <ellipse cx="50" cy="58" rx="38" ry="12" fill="#FFF" stroke="#999" stroke-width="2.5"/>
  <!-- Red sauce base -->
  <ellipse cx="50" cy="54" rx="30" ry="10" fill="#E74C3C" opacity="0.6"/>
  <!-- Spaghetti noodles -->
  <path d="M25 52 Q30 42 40 48 Q48 54 55 46 Q62 38 72 48" fill="none" stroke="#F0C838" stroke-width="3.5" stroke-linecap="round"/>
  <path d="M22 56 Q32 48 42 54 Q50 60 58 52 Q66 44 75 52" fill="none" stroke="#E8BE30" stroke-width="3.5" stroke-linecap="round"/>
  <path d="M28 60 Q36 52 44 58 Q52 64 60 56 Q68 48 74 56" fill="none" stroke="#F0C838" stroke-width="3" stroke-linecap="round"/>
  <!-- Sauce spots -->
  <circle cx="38" cy="50" r="3.5" fill="#E74C3C"/>
  <circle cx="55" cy="48" r="3" fill="#D44030"/>
  <circle cx="48" cy="56" r="2.5" fill="#E74C3C"/>
  <!-- Fork -->
  <line x1="70" y1="20" x2="62" y2="52" stroke="#BBB" stroke-width="2.5" stroke-linecap="round"/>
  <line x1="66" y1="48" x2="68" y2="20" stroke="#CCC" stroke-width="2" stroke-linecap="round"/>
  <line x1="72" y1="20" x2="64" y2="50" stroke="#CCC" stroke-width="1.5" stroke-linecap="round"/>
</svg>