<svg viewBox="0 0 100 100" xmlns="http://www.w3.org/2000/svg">
  <!-- Round pita bread -->
  <ellipse cx="50" cy="55" rx="38" ry="32" fill="#D4A040" stroke="#8B6914" stroke-width="3"/>
  <ellipse cx="50" cy="52" rx="36" ry="30" fill="#E8C060"/>
  <!-- Top highlight -->
  <ellipse cx="46" cy="42" rx="20" ry="12" fill="#F0D070" opacity="0.5"/>
  <!-- Pita pocket opening at top -->
  <path d="M30 42 Q40 36 50 38 Q60 36 70 42" fill="#C8922A" stroke="#8B6914" stroke-width="2"/>
  <!-- Veggies peeking out -->
  <circle cx="38" cy="38" r="3" fill="#E74C3C"/> <!-- tomato -->
  <path d="M44 35 Q46 30 48 35" fill="#4CAF50" stroke="#388E3C" stroke-width="1.5"/> <!-- lettuce -->
  <circle cx="52" cy="36" r="2.5" fill="#AB47BC" opacity="0.7"/> <!-- onion -->
  <path d="M56 34 Q58 30 62 34" fill="#4CAF50" stroke="#388E3C" stroke-width="1.5"/> <!-- lettuce -->
  <circle cx="64" cy="38" r="2.5" fill="#E74C3C"/> <!-- tomato -->
  <!-- Surface texture -->
  <path d="M30 55 Q40 50 50 52 Q60 50 70 55" fill="none" stroke="#C8922A" stroke-width="1" opacity="0.4"/>
  <path d="M26 65 Q38 60 50 62 Q62 60 74 65" fill="none" stroke="#C8922A" stroke-width="1" opacity="0.3"/>
</svg>