<svg viewBox="0 0 100 100" xmlns="http://www.w3.org/2000/svg">
  <!-- Pizza slice triangle -->
  <path d="M50 12 L12 88 L88 88 Z" fill="#F4C542" stroke="#D4952B" stroke-width="3" stroke-linejoin="round"/>
  <!-- Cheese layer -->
  <path d="M50 20 L18 84 L82 84 Z" fill="#F0C030"/>
  <!-- Crust -->
  <path d="M12 88 Q50 94 88 88" fill="#D4952B" stroke="#B07818" stroke-width="3" stroke-linecap="round"/>
  <path d="M14 86 Q50 92 86 86" fill="#E8A830" stroke="none"/>
  <!-- Melted cheese drips -->
  <path d="M30 78 Q28 84 26 88" fill="none" stroke="#F0C030" stroke-width="3" stroke-linecap="round"/>
  <path d="M70 78 Q72 83 74 88" fill="none" stroke="#F0C030" stroke-width="2.5" stroke-linecap="round"/>
  <!-- Pepperoni -->
  <circle cx="42" cy="48" r="7" fill="#E74C3C" stroke="#C0392B" stroke-width="2"/>
  <circle cx="42" cy="48" r="4" fill="#D32F2F" opacity="0.4"/>
  <circle cx="62" cy="55" r="6" fill="#E74C3C" stroke="#C0392B" stroke-width="2"/>
  <circle cx="62" cy="55" r="3.5" fill="#D32F2F" opacity="0.4"/>
  <circle cx="50" cy="70" r="7" fill="#E74C3C" stroke="#C0392B" stroke-width="2"/>
  <circle cx="50" cy="70" r="4" fill="#D32F2F" opacity="0.4"/>
  <!-- Basil leaves -->
  <path d="M36 62 Q38 58 42 60 Q38 63 36 62Z" fill="#4CAF50"/>
  <path d="M56 42 Q58 38 62 40 Q58 43 56 42Z" fill="#4CAF50"/>
  <!-- Cheese bubbles -->
  <circle cx="34" cy="38" r="2" fill="#F8D848" opacity="0.5"/>
  <circle cx="55" cy="32" r="1.5" fill="#F8D848" opacity="0.5"/>
</svg>