<svg viewBox="0 0 100 100" xmlns="http://www.w3.org/2000/svg">
  <!-- Pizza slice with mushroom toppings -->
  <!-- Shadow -->
  <ellipse cx="50" cy="92" rx="32" ry="4" fill="#00000020"/>
  <!-- Main slice shape - tilted triangle -->
  <path d="M85 18 L10 76 Q18 88 36 90 Q56 90 85 18Z" fill="#F4C542" stroke="#5D4037" stroke-width="2.5" stroke-linejoin="round"/>
  <!-- Cheese surface -->
  <path d="M82 24 L16 74 Q22 84 36 86 Q54 86 82 24Z" fill="#F0C838"/>
  <!-- Crust arc -->
  <path d="M10 76 Q18 88 36 90" fill="none" stroke="#D4952B" stroke-width="9" stroke-linecap="round"/>
  <path d="M10 76 Q18 88 36 90" fill="none" stroke="#5D4037" stroke-width="2" stroke-linecap="round"/>
  <!-- Crust highlight -->
  <path d="M12 78 Q20 86 34 88" fill="none" stroke="#E8B838" stroke-width="2.5" opacity="0.4" stroke-linecap="round"/>
  <!-- Mushroom slices -->
  <path d="M46 50 Q48 42 56 42 Q64 42 66 50Z" fill="#F0E0C8" stroke="#5D4037" stroke-width="1.8"/>
  <rect x="52" y="46" width="4" height="5" rx="1" fill="#D8C8B0" stroke="#5D4037" stroke-width="1"/>
  <path d="M26 68 Q28 60 36 60 Q44 60 46 68Z" fill="#F0E0C8" stroke="#5D4037" stroke-width="1.8"/>
  <rect x="32" y="62" width="4" height="5" rx="1" fill="#D8C8B0" stroke="#5D4037" stroke-width="1"/>
  <path d="M58 36 Q60 30 66 30 Q72 30 74 36Z" fill="#F0E0C8" stroke="#5D4037" stroke-width="1.5"/>
  <rect x="63" y="32" width="3.5" height="4" rx="1" fill="#D8C8B0" stroke="#5D4037" stroke-width="1"/>
  <!-- Cheese bubbles -->
  <circle cx="40" cy="58" r="2" fill="#F8D848" opacity="0.5"/>
  <circle cx="70" cy="30" r="1.5" fill="#F8D848" opacity="0.4"/>
</svg>